<svg xmlns="http://www.w3.org/2000/svg" xmlns:xlink="http://www.w3.org/1999/xlink" width="1366" zoomAndPan="magnify" viewBox="0 0 1024.5 576" height="768" preserveAspectRatio="xMidYMid meet" version="1.2"><defs><clipPath id="727466cd62"><path d="M 309.300781 193.640625 L 487.714844 193.640625 L 487.714844 399 L 309.300781 399 Z M 309.300781 193.640625 "/></clipPath><clipPath id="b548b5e5b1"><path d="M 446.957031 194.757812 L 474.617188 194.757812 L 474.617188 263.257812 L 446.957031 263.257812 Z M 446.957031 194.757812 "/></clipPath><clipPath id="4c7280ed1f"><path d="M 446.957031 248.574219 L 446.957031 197.085938 C 446.957031 196.328125 447.339844 195.621094 447.976562 195.207031 C 448.613281 194.796875 449.417969 194.734375 450.109375 195.046875 L 471.464844 204.636719 C 473.382812 205.496094 474.617188 207.402344 474.617188 209.503906 L 474.617188 260.992188 C 474.617188 261.75 474.230469 262.457031 473.597656 262.871094 C 472.960938 263.28125 472.15625 263.34375 471.464844 263.03125 L 450.109375 253.441406 C 448.191406 252.582031 446.957031 250.675781 446.957031 248.574219 Z M 446.957031 248.574219 "/></clipPath><clipPath id="5e5d9d15da"><path d="M 362.277344 253 L 377 253 L 377 259 L 362.277344 259 Z M 362.277344 253 "/></clipPath><clipPath id="cf285d5c0e"><path d="M 421 246 L 434.992188 246 L 434.992188 252 L 421 252 Z M 421 246 "/></clipPath><clipPath id="5ad6aa9f6e"><path d="M 571.515625 329.898438 L 588.757812 329.898438 L 588.757812 339.644531 L 571.515625 339.644531 Z M 571.515625 329.898438 "/></clipPath></defs><g id="43a76622c7"><g clip-rule="nonzero" clip-path="url(#727466cd62)"><path style=" stroke:none;fill-rule:nonzero;fill:#1a2c80;fill-opacity:1;" d="M 456.527344 398.902344 L 339.890625 398.902344 C 338.890625 398.898438 337.898438 398.847656 336.902344 398.75 C 335.910156 398.652344 334.925781 398.503906 333.945312 398.308594 C 332.96875 398.113281 332 397.871094 331.046875 397.578125 C 330.089844 397.289062 329.152344 396.953125 328.230469 396.570312 C 327.308594 396.1875 326.40625 395.761719 325.527344 395.289062 C 324.648438 394.820312 323.792969 394.304688 322.960938 393.75 C 322.132812 393.195312 321.332031 392.601562 320.5625 391.96875 C 319.789062 391.335938 319.050781 390.667969 318.34375 389.960938 C 317.640625 389.253906 316.96875 388.515625 316.335938 387.746094 C 315.703125 386.972656 315.109375 386.171875 314.554688 385.34375 C 314 384.515625 313.488281 383.660156 313.015625 382.777344 C 312.546875 381.898438 312.117188 380.996094 311.734375 380.074219 C 311.351562 379.152344 311.015625 378.214844 310.726562 377.261719 C 310.4375 376.304688 310.191406 375.339844 309.996094 374.359375 C 309.800781 373.382812 309.65625 372.394531 309.554688 371.402344 C 309.457031 370.410156 309.40625 369.414062 309.40625 368.414062 L 309.40625 286.652344 C 309.402344 284.726562 309.582031 282.820312 309.949219 280.925781 C 310.3125 279.035156 310.859375 277.199219 311.578125 275.414062 C 312.300781 273.628906 313.1875 271.929688 314.238281 270.316406 C 315.292969 268.703125 316.488281 267.203125 317.828125 265.820312 L 380.226562 201.296875 C 380.804688 200.691406 381.414062 200.117188 382.054688 199.574219 C 382.691406 199.035156 383.355469 198.523438 384.046875 198.050781 C 384.734375 197.574219 385.445312 197.132812 386.179688 196.730469 C 386.914062 196.328125 387.667969 195.960938 388.4375 195.632812 C 389.207031 195.304688 389.992188 195.015625 390.792969 194.765625 C 391.589844 194.519531 392.402344 194.308594 393.222656 194.144531 C 394.042969 193.976562 394.871094 193.851562 395.703125 193.765625 C 396.535156 193.679688 397.371094 193.640625 398.210938 193.640625 C 399.046875 193.640625 399.882812 193.679688 400.714844 193.765625 C 401.546875 193.851562 402.375 193.976562 403.195312 194.144531 C 404.015625 194.308594 404.828125 194.519531 405.625 194.765625 C 406.425781 195.015625 407.210938 195.304688 407.980469 195.632812 C 408.753906 195.960938 409.503906 196.328125 410.238281 196.730469 C 410.972656 197.132812 411.683594 197.574219 412.375 198.050781 C 413.0625 198.523438 413.726562 199.035156 414.363281 199.574219 C 415.003906 200.117188 415.613281 200.691406 416.191406 201.296875 L 484.40625 271.835938 C 484.832031 272.273438 485.210938 272.746094 485.542969 273.257812 C 485.878906 273.769531 486.15625 274.3125 486.382812 274.878906 C 486.609375 275.445312 486.777344 276.03125 486.890625 276.632812 C 487 277.230469 487.050781 277.839844 487.042969 278.449219 C 487.03125 279.058594 486.964844 279.664062 486.835938 280.261719 C 486.707031 280.859375 486.523438 281.4375 486.28125 282 C 486.039062 282.558594 485.742188 283.089844 485.394531 283.59375 C 485.046875 284.097656 484.652344 284.558594 484.214844 284.984375 C 483.773438 285.410156 483.296875 285.785156 482.785156 286.117188 C 482.269531 286.449219 481.730469 286.726562 481.160156 286.949219 C 480.59375 287.171875 480.007812 287.339844 479.40625 287.445312 C 478.804688 287.554688 478.199219 287.601562 477.589844 287.589844 C 476.976562 287.578125 476.375 287.507812 475.777344 287.378906 C 475.179688 287.246094 474.601562 287.058594 474.042969 286.8125 C 473.480469 286.566406 472.953125 286.269531 472.449219 285.921875 C 471.949219 285.570312 471.488281 285.175781 471.066406 284.734375 L 402.847656 214.21875 C 402.550781 213.902344 402.222656 213.621094 401.867188 213.371094 C 401.511719 213.121094 401.136719 212.910156 400.738281 212.734375 C 400.335938 212.5625 399.925781 212.433594 399.5 212.34375 C 399.074219 212.257812 398.644531 212.210938 398.210938 212.210938 C 397.773438 212.210938 397.34375 212.257812 396.917969 212.34375 C 396.492188 212.433594 396.082031 212.5625 395.683594 212.734375 C 395.28125 212.910156 394.90625 213.121094 394.550781 213.371094 C 394.195312 213.621094 393.867188 213.902344 393.570312 214.21875 L 331.167969 278.722656 C 330.140625 279.789062 329.351562 281.011719 328.800781 282.386719 C 328.25 283.761719 327.980469 285.191406 327.988281 286.675781 L 327.988281 368.414062 C 327.988281 369.199219 328.066406 369.972656 328.21875 370.742188 C 328.375 371.507812 328.601562 372.253906 328.898438 372.976562 C 329.199219 373.703125 329.566406 374.386719 330.003906 375.039062 C 330.4375 375.691406 330.933594 376.292969 331.488281 376.847656 C 332.039062 377.398438 332.640625 377.894531 333.292969 378.328125 C 333.945312 378.765625 334.632812 379.132812 335.355469 379.433594 C 336.078125 379.734375 336.824219 379.960938 337.589844 380.113281 C 338.359375 380.265625 339.132812 380.34375 339.917969 380.34375 L 456.554688 380.34375 C 457.164062 380.34375 457.765625 380.402344 458.363281 380.523438 C 458.960938 380.640625 459.542969 380.816406 460.105469 381.050781 C 460.667969 381.285156 461.203125 381.570312 461.710938 381.910156 C 462.214844 382.246094 462.683594 382.632812 463.117188 383.0625 C 463.546875 383.492188 463.929688 383.960938 464.269531 384.46875 C 464.609375 384.972656 464.894531 385.507812 465.125 386.070312 C 465.359375 386.636719 465.535156 387.214844 465.65625 387.8125 C 465.773438 388.410156 465.832031 389.011719 465.832031 389.621094 C 465.832031 390.230469 465.773438 390.835938 465.65625 391.433594 C 465.535156 392.03125 465.359375 392.609375 465.125 393.171875 C 464.894531 393.734375 464.609375 394.269531 464.269531 394.777344 C 463.929688 395.285156 463.546875 395.753906 463.117188 396.183594 C 462.683594 396.613281 462.214844 397 461.710938 397.335938 C 461.203125 397.675781 460.667969 397.960938 460.105469 398.195312 C 459.542969 398.425781 458.960938 398.601562 458.363281 398.722656 C 457.765625 398.839844 457.164062 398.902344 456.554688 398.902344 Z M 456.527344 398.902344 "/></g><g clip-rule="nonzero" clip-path="url(#b548b5e5b1)"><g clip-rule="nonzero" clip-path="url(#4c7280ed1f)"><path style=" stroke:none;fill-rule:nonzero;fill:#1a2c80;fill-opacity:1;" d="M 446.957031 264.449219 L 446.957031 193.679688 L 474.617188 193.679688 L 474.617188 264.449219 Z M 446.957031 264.449219 "/></g></g><g style="fill:#071658;fill-opacity:1;"><g transform="translate(354.150933, 313.640518)"><path style="stroke:none" d="M 18.890625 -18.78125 L 11.296875 0 L 7.734375 0 L 0.140625 -18.78125 L 4.609375 -18.78125 L 8.484375 -8.234375 L 9.5 -5.28125 L 10.53125 -8.234375 L 14.421875 -18.78125 Z M 18.890625 -18.78125 "/></g></g><g style="fill:#071658;fill-opacity:1;"><g transform="translate(375.472584, 313.640518)"><path style="stroke:none" d="M 16.15625 -9.421875 C 16.15625 -10.398438 15.894531 -11.304688 15.375 -12.140625 C 14.863281 -12.972656 14.1875 -13.644531 13.34375 -14.15625 C 12.507812 -14.675781 11.609375 -14.9375 10.640625 -14.9375 C 9.679688 -14.9375 8.773438 -14.675781 7.921875 -14.15625 C 7.078125 -13.644531 6.394531 -12.972656 5.875 -12.140625 C 5.363281 -11.304688 5.109375 -10.398438 5.109375 -9.421875 C 5.109375 -8.460938 5.363281 -7.554688 5.875 -6.703125 C 6.394531 -5.859375 7.078125 -5.175781 7.921875 -4.65625 C 8.773438 -4.132812 9.679688 -3.875 10.640625 -3.875 C 11.609375 -3.875 12.507812 -4.132812 13.34375 -4.65625 C 14.1875 -5.175781 14.863281 -5.859375 15.375 -6.703125 C 15.894531 -7.554688 16.15625 -8.460938 16.15625 -9.421875 Z M 20.296875 -9.390625 C 20.296875 -8.097656 20.035156 -6.867188 19.515625 -5.703125 C 19.003906 -4.535156 18.300781 -3.503906 17.40625 -2.609375 C 16.519531 -1.710938 15.492188 -1.003906 14.328125 -0.484375 C 13.171875 0.0234375 11.941406 0.28125 10.640625 0.28125 C 9.347656 0.28125 8.113281 0.0234375 6.9375 -0.484375 C 5.769531 -1.003906 4.738281 -1.710938 3.84375 -2.609375 C 2.957031 -3.503906 2.253906 -4.535156 1.734375 -5.703125 C 1.222656 -6.867188 0.96875 -8.097656 0.96875 -9.390625 C 0.96875 -10.703125 1.222656 -11.9375 1.734375 -13.09375 C 2.253906 -14.25 2.957031 -15.273438 3.84375 -16.171875 C 4.738281 -17.066406 5.769531 -17.769531 6.9375 -18.28125 C 8.113281 -18.800781 9.347656 -19.0625 10.640625 -19.0625 C 11.941406 -19.0625 13.171875 -18.800781 14.328125 -18.28125 C 15.492188 -17.769531 16.519531 -17.066406 17.40625 -16.171875 C 18.300781 -15.273438 19.003906 -14.25 19.515625 -13.09375 C 20.035156 -11.9375 20.296875 -10.703125 20.296875 -9.390625 Z M 20.296875 -9.390625 "/></g></g><g style="fill:#071658;fill-opacity:1;"><g transform="translate(400.522891, 313.640518)"><path style="stroke:none" d="M 9.640625 -15.03125 L 9.640625 0 L 5.5 0 L 5.5 -15.03125 L 0.140625 -15.03125 L 0.140625 -18.78125 L 15 -18.78125 L 15 -15.03125 Z M 9.640625 -15.03125 "/></g></g><g style="fill:#071658;fill-opacity:1;"><g transform="translate(419.442189, 313.640518)"><path style="stroke:none" d="M 5.796875 -6.71875 L 5.796875 0 L 1.65625 0 L 1.65625 -18.78125 L 8.703125 -18.78125 C 9.710938 -18.78125 10.65625 -18.523438 11.53125 -18.015625 C 12.40625 -17.515625 13.109375 -16.8125 13.640625 -15.90625 C 14.179688 -15.007812 14.453125 -13.960938 14.453125 -12.765625 C 14.453125 -11.710938 14.253906 -10.78125 13.859375 -9.96875 C 13.472656 -9.15625 12.957031 -8.488281 12.3125 -7.96875 C 11.675781 -7.457031 10.960938 -7.101562 10.171875 -6.90625 L 15.546875 0 L 10.296875 0 L 5.828125 -6.71875 Z M 8.015625 -15.53125 L 5.796875 -15.53125 L 5.796875 -9.96875 L 8.015625 -9.96875 C 8.617188 -9.96875 9.179688 -10.207031 9.703125 -10.6875 C 10.234375 -11.164062 10.5 -11.859375 10.5 -12.765625 C 10.5 -13.628906 10.234375 -14.304688 9.703125 -14.796875 C 9.179688 -15.285156 8.617188 -15.53125 8.015625 -15.53125 Z M 8.015625 -15.53125 "/></g></g><g style="fill:#071658;fill-opacity:1;"><g transform="translate(438.44434, 313.640518)"><path style="stroke:none" d="M 12.546875 -3.75 L 12.546875 0 L 1.65625 0 L 1.65625 -18.78125 L 12.546875 -18.78125 L 12.546875 -15.03125 L 5.796875 -15.03125 L 5.796875 -11.296875 L 12.265625 -11.296875 L 12.265625 -7.546875 L 5.796875 -7.546875 L 5.796875 -3.75 Z M 12.546875 -3.75 "/></g></g><g style="fill:#071658;fill-opacity:1;"><g transform="translate(456.424665, 313.640518)"><path style="stroke:none" d=""/></g></g><g style="fill:#071658;fill-opacity:1;"><g transform="translate(467.11407, 313.640518)"><path style="stroke:none" d="M 5.796875 -6.71875 L 5.796875 0 L 1.65625 0 L 1.65625 -18.78125 L 8.703125 -18.78125 C 9.710938 -18.78125 10.65625 -18.523438 11.53125 -18.015625 C 12.40625 -17.515625 13.109375 -16.8125 13.640625 -15.90625 C 14.179688 -15.007812 14.453125 -13.960938 14.453125 -12.765625 C 14.453125 -11.492188 14.179688 -10.40625 13.640625 -9.5 C 13.109375 -8.601562 12.40625 -7.914062 11.53125 -7.4375 C 10.65625 -6.957031 9.710938 -6.71875 8.703125 -6.71875 Z M 8.015625 -15.53125 L 5.796875 -15.53125 L 5.796875 -9.96875 L 8.015625 -9.96875 C 8.617188 -9.96875 9.179688 -10.207031 9.703125 -10.6875 C 10.234375 -11.164062 10.5 -11.859375 10.5 -12.765625 C 10.5 -13.628906 10.234375 -14.304688 9.703125 -14.796875 C 9.179688 -15.285156 8.617188 -15.53125 8.015625 -15.53125 Z M 8.015625 -15.53125 "/></g></g><g style="fill:#071658;fill-opacity:1;"><g transform="translate(483.768341, 313.640518)"><path style="stroke:none" d="M 11.875 -7.1875 L 9.5 -13.875 L 7.125 -7.1875 Z M 18.890625 0 L 14.453125 0 L 13.09375 -3.78125 L 5.9375 -3.78125 L 4.578125 0 L 0.140625 0 L 7.765625 -18.78125 L 11.265625 -18.78125 Z M 18.890625 0 "/></g></g><g style="fill:#071658;fill-opacity:1;"><g transform="translate(506.581657, 313.640518)"><path style="stroke:none" d="M 5.796875 -6.71875 L 5.796875 0 L 1.65625 0 L 1.65625 -18.78125 L 8.703125 -18.78125 C 9.710938 -18.78125 10.65625 -18.523438 11.53125 -18.015625 C 12.40625 -17.515625 13.109375 -16.8125 13.640625 -15.90625 C 14.179688 -15.007812 14.453125 -13.960938 14.453125 -12.765625 C 14.453125 -11.710938 14.253906 -10.78125 13.859375 -9.96875 C 13.472656 -9.15625 12.957031 -8.488281 12.3125 -7.96875 C 11.675781 -7.457031 10.960938 -7.101562 10.171875 -6.90625 L 15.546875 0 L 10.296875 0 L 5.828125 -6.71875 Z M 8.015625 -15.53125 L 5.796875 -15.53125 L 5.796875 -9.96875 L 8.015625 -9.96875 C 8.617188 -9.96875 9.179688 -10.207031 9.703125 -10.6875 C 10.234375 -11.164062 10.5 -11.859375 10.5 -12.765625 C 10.5 -13.628906 10.234375 -14.304688 9.703125 -14.796875 C 9.179688 -15.285156 8.617188 -15.53125 8.015625 -15.53125 Z M 8.015625 -15.53125 "/></g></g><g style="fill:#071658;fill-opacity:1;"><g transform="translate(525.583807, 313.640518)"><path style="stroke:none" d="M 9.640625 -15.03125 L 9.640625 0 L 5.5 0 L 5.5 -15.03125 L 0.140625 -15.03125 L 0.140625 -18.78125 L 15 -18.78125 L 15 -15.03125 Z M 9.640625 -15.03125 "/></g></g><g style="fill:#071658;fill-opacity:1;"><g transform="translate(544.503106, 313.640518)"><path style="stroke:none" d="M 12.546875 -3.75 L 12.546875 0 L 1.65625 0 L 1.65625 -18.78125 L 12.546875 -18.78125 L 12.546875 -15.03125 L 5.796875 -15.03125 L 5.796875 -11.296875 L 12.265625 -11.296875 L 12.265625 -7.546875 L 5.796875 -7.546875 L 5.796875 -3.75 Z M 12.546875 -3.75 "/></g></g><g style="fill:#071658;fill-opacity:1;"><g transform="translate(562.483431, 313.640518)"><path style="stroke:none" d="M 16.40625 0 L 12.265625 0 L 5.796875 -11.71875 L 5.796875 0 L 1.65625 0 L 1.65625 -18.78125 L 5.796875 -18.78125 L 12.265625 -7.078125 L 12.265625 -18.78125 L 16.40625 -18.78125 Z M 16.40625 0 "/></g></g><g style="fill:#071658;fill-opacity:1;"><g transform="translate(584.330156, 313.640518)"><path style="stroke:none" d="M 11.875 -7.1875 L 9.5 -13.875 L 7.125 -7.1875 Z M 18.890625 0 L 14.453125 0 L 13.09375 -3.78125 L 5.9375 -3.78125 L 4.578125 0 L 0.140625 0 L 7.765625 -18.78125 L 11.265625 -18.78125 Z M 18.890625 0 "/></g></g><g style="fill:#071658;fill-opacity:1;"><g transform="translate(607.143472, 313.640518)"><path style="stroke:none" d="M 5.796875 0 L 1.65625 0 L 1.65625 -18.78125 L 5.796875 -18.78125 Z M 5.796875 0 "/></g></g><g style="fill:#071658;fill-opacity:1;"><g transform="translate(618.385225, 313.640518)"><path style="stroke:none" d="M 5.796875 -6.71875 L 5.796875 0 L 1.65625 0 L 1.65625 -18.78125 L 8.703125 -18.78125 C 9.710938 -18.78125 10.65625 -18.523438 11.53125 -18.015625 C 12.40625 -17.515625 13.109375 -16.8125 13.640625 -15.90625 C 14.179688 -15.007812 14.453125 -13.960938 14.453125 -12.765625 C 14.453125 -11.710938 14.253906 -10.78125 13.859375 -9.96875 C 13.472656 -9.15625 12.957031 -8.488281 12.3125 -7.96875 C 11.675781 -7.457031 10.960938 -7.101562 10.171875 -6.90625 L 15.546875 0 L 10.296875 0 L 5.828125 -6.71875 Z M 8.015625 -15.53125 L 5.796875 -15.53125 L 5.796875 -9.96875 L 8.015625 -9.96875 C 8.617188 -9.96875 9.179688 -10.207031 9.703125 -10.6875 C 10.234375 -11.164062 10.5 -11.859375 10.5 -12.765625 C 10.5 -13.628906 10.234375 -14.304688 9.703125 -14.796875 C 9.179688 -15.285156 8.617188 -15.53125 8.015625 -15.53125 Z M 8.015625 -15.53125 "/></g></g><g style="fill:#071658;fill-opacity:1;"><g transform="translate(637.387376, 313.640518)"><path style="stroke:none" d="M 12.546875 -3.75 L 12.546875 0 L 1.65625 0 L 1.65625 -18.78125 L 12.546875 -18.78125 L 12.546875 -15.03125 L 5.796875 -15.03125 L 5.796875 -11.296875 L 12.265625 -11.296875 L 12.265625 -7.546875 L 5.796875 -7.546875 L 5.796875 -3.75 Z M 12.546875 -3.75 "/></g></g><g style="fill:#071658;fill-opacity:1;"><g transform="translate(356.051871, 323.731455)"><path style="stroke:none" d="M 0.28125 0 L 1.953125 -7.859375 L 3.875 -7.859375 C 4.664062 -7.859375 5.289062 -7.6875 5.75 -7.34375 C 6.207031 -7.007812 6.4375 -6.460938 6.4375 -5.703125 C 6.4375 -5.285156 6.359375 -4.921875 6.203125 -4.609375 C 6.054688 -4.296875 5.851562 -4.035156 5.59375 -3.828125 C 5.332031 -3.617188 5.035156 -3.457031 4.703125 -3.34375 L 6.109375 0 L 4.3125 0 L 3.203125 -3.015625 L 2.5625 -3.015625 L 1.921875 0 Z M 2.84375 -4.375 L 3.265625 -4.375 C 3.503906 -4.375 3.710938 -4.398438 3.890625 -4.453125 C 4.078125 -4.503906 4.234375 -4.578125 4.359375 -4.671875 C 4.492188 -4.773438 4.59375 -4.90625 4.65625 -5.0625 C 4.726562 -5.21875 4.765625 -5.398438 4.765625 -5.609375 C 4.765625 -5.910156 4.675781 -6.132812 4.5 -6.28125 C 4.332031 -6.425781 4.066406 -6.5 3.703125 -6.5 L 3.296875 -6.5 Z M 2.84375 -4.375 "/></g></g><g style="fill:#071658;fill-opacity:1;"><g transform="translate(371.572294, 323.731455)"><path style="stroke:none" d="M -0.65625 0 L 3.453125 -7.859375 L 5.46875 -7.859375 L 6.25 0 L 4.65625 0 L 4.53125 -1.875 L 1.984375 -1.875 L 1.0625 0 Z M 2.65625 -3.265625 L 4.453125 -3.265625 L 4.3125 -5.296875 C 4.289062 -5.515625 4.273438 -5.734375 4.265625 -5.953125 C 4.253906 -6.171875 4.25 -6.394531 4.25 -6.625 L 4.234375 -6.625 C 4.160156 -6.425781 4.078125 -6.226562 3.984375 -6.03125 C 3.898438 -5.832031 3.800781 -5.625 3.6875 -5.40625 Z M 2.65625 -3.265625 "/></g></g><g style="fill:#071658;fill-opacity:1;"><g transform="translate(387.302497, 323.731455)"><path style="stroke:none" d="M 3.546875 0.109375 C 2.910156 0.109375 2.378906 -0.015625 1.953125 -0.265625 C 1.523438 -0.523438 1.203125 -0.882812 0.984375 -1.34375 C 0.765625 -1.800781 0.65625 -2.34375 0.65625 -2.96875 C 0.65625 -3.4375 0.707031 -3.90625 0.8125 -4.375 C 0.925781 -4.851562 1.085938 -5.304688 1.296875 -5.734375 C 1.515625 -6.171875 1.789062 -6.554688 2.125 -6.890625 C 2.457031 -7.222656 2.847656 -7.488281 3.296875 -7.6875 C 3.753906 -7.882812 4.28125 -7.984375 4.875 -7.984375 C 5.363281 -7.984375 5.78125 -7.9375 6.125 -7.84375 C 6.476562 -7.75 6.832031 -7.609375 7.1875 -7.421875 L 6.546875 -6.078125 C 6.285156 -6.222656 6.019531 -6.34375 5.75 -6.4375 C 5.488281 -6.539062 5.195312 -6.59375 4.875 -6.59375 C 4.507812 -6.59375 4.1875 -6.519531 3.90625 -6.375 C 3.632812 -6.238281 3.398438 -6.046875 3.203125 -5.796875 C 3.003906 -5.554688 2.835938 -5.28125 2.703125 -4.96875 C 2.578125 -4.664062 2.484375 -4.347656 2.421875 -4.015625 C 2.359375 -3.679688 2.328125 -3.363281 2.328125 -3.0625 C 2.328125 -2.46875 2.453125 -2.023438 2.703125 -1.734375 C 2.953125 -1.441406 3.34375 -1.296875 3.875 -1.296875 C 4.175781 -1.296875 4.476562 -1.332031 4.78125 -1.40625 C 5.082031 -1.476562 5.390625 -1.578125 5.703125 -1.703125 L 5.703125 -0.3125 C 5.484375 -0.21875 5.1875 -0.125 4.8125 -0.03125 C 4.445312 0.0625 4.023438 0.109375 3.546875 0.109375 Z M 3.546875 0.109375 "/></g></g><g style="fill:#071658;fill-opacity:1;"><g transform="translate(402.855195, 323.731455)"><path style="stroke:none" d="M 3.546875 0.109375 C 2.910156 0.109375 2.378906 -0.015625 1.953125 -0.265625 C 1.523438 -0.523438 1.203125 -0.882812 0.984375 -1.34375 C 0.765625 -1.800781 0.65625 -2.34375 0.65625 -2.96875 C 0.65625 -3.4375 0.707031 -3.90625 0.8125 -4.375 C 0.925781 -4.851562 1.085938 -5.304688 1.296875 -5.734375 C 1.515625 -6.171875 1.789062 -6.554688 2.125 -6.890625 C 2.457031 -7.222656 2.847656 -7.488281 3.296875 -7.6875 C 3.753906 -7.882812 4.28125 -7.984375 4.875 -7.984375 C 5.363281 -7.984375 5.78125 -7.9375 6.125 -7.84375 C 6.476562 -7.75 6.832031 -7.609375 7.1875 -7.421875 L 6.546875 -6.078125 C 6.285156 -6.222656 6.019531 -6.34375 5.75 -6.4375 C 5.488281 -6.539062 5.195312 -6.59375 4.875 -6.59375 C 4.507812 -6.59375 4.1875 -6.519531 3.90625 -6.375 C 3.632812 -6.238281 3.398438 -6.046875 3.203125 -5.796875 C 3.003906 -5.554688 2.835938 -5.28125 2.703125 -4.96875 C 2.578125 -4.664062 2.484375 -4.347656 2.421875 -4.015625 C 2.359375 -3.679688 2.328125 -3.363281 2.328125 -3.0625 C 2.328125 -2.46875 2.453125 -2.023438 2.703125 -1.734375 C 2.953125 -1.441406 3.34375 -1.296875 3.875 -1.296875 C 4.175781 -1.296875 4.476562 -1.332031 4.78125 -1.40625 C 5.082031 -1.476562 5.390625 -1.578125 5.703125 -1.703125 L 5.703125 -0.3125 C 5.484375 -0.21875 5.1875 -0.125 4.8125 -0.03125 C 4.445312 0.0625 4.023438 0.109375 3.546875 0.109375 Z M 3.546875 0.109375 "/></g></g><g style="fill:#071658;fill-opacity:1;"><g transform="translate(418.407893, 323.731455)"><path style="stroke:none" d="M 3.578125 0.109375 C 2.941406 0.109375 2.40625 -0.015625 1.96875 -0.265625 C 1.539062 -0.515625 1.210938 -0.863281 0.984375 -1.3125 C 0.765625 -1.757812 0.65625 -2.285156 0.65625 -2.890625 C 0.65625 -3.296875 0.691406 -3.703125 0.765625 -4.109375 C 0.835938 -4.523438 0.945312 -4.921875 1.09375 -5.296875 C 1.25 -5.679688 1.441406 -6.035156 1.671875 -6.359375 C 1.898438 -6.679688 2.164062 -6.960938 2.46875 -7.203125 C 2.78125 -7.453125 3.128906 -7.644531 3.515625 -7.78125 C 3.910156 -7.914062 4.347656 -7.984375 4.828125 -7.984375 C 5.773438 -7.984375 6.488281 -7.710938 6.96875 -7.171875 C 7.457031 -6.640625 7.703125 -5.929688 7.703125 -5.046875 C 7.703125 -4.617188 7.664062 -4.191406 7.59375 -3.765625 C 7.53125 -3.347656 7.425781 -2.945312 7.28125 -2.5625 C 7.132812 -2.1875 6.945312 -1.832031 6.71875 -1.5 C 6.5 -1.175781 6.234375 -0.894531 5.921875 -0.65625 C 5.617188 -0.414062 5.269531 -0.226562 4.875 -0.09375 C 4.488281 0.0390625 4.054688 0.109375 3.578125 0.109375 Z M 3.703125 -1.296875 C 3.910156 -1.296875 4.113281 -1.332031 4.3125 -1.40625 C 4.507812 -1.488281 4.691406 -1.601562 4.859375 -1.75 C 5.035156 -1.894531 5.195312 -2.078125 5.34375 -2.296875 C 5.488281 -2.515625 5.609375 -2.757812 5.703125 -3.03125 C 5.804688 -3.3125 5.882812 -3.613281 5.9375 -3.9375 C 6 -4.269531 6.03125 -4.625 6.03125 -5 C 6.03125 -5.488281 5.914062 -5.875 5.6875 -6.15625 C 5.46875 -6.445312 5.132812 -6.59375 4.6875 -6.59375 C 4.457031 -6.59375 4.238281 -6.546875 4.03125 -6.453125 C 3.832031 -6.367188 3.644531 -6.242188 3.46875 -6.078125 C 3.300781 -5.910156 3.144531 -5.710938 3 -5.484375 C 2.863281 -5.265625 2.742188 -5.015625 2.640625 -4.734375 C 2.535156 -4.460938 2.457031 -4.171875 2.40625 -3.859375 C 2.351562 -3.546875 2.328125 -3.222656 2.328125 -2.890625 C 2.328125 -2.535156 2.378906 -2.238281 2.484375 -2 C 2.597656 -1.769531 2.753906 -1.59375 2.953125 -1.46875 C 3.160156 -1.351562 3.410156 -1.296875 3.703125 -1.296875 Z M 3.703125 -1.296875 "/></g></g><g style="fill:#071658;fill-opacity:1;"><g transform="translate(435.262297, 323.731455)"><path style="stroke:none" d="M 0.28125 0 L 1.953125 -7.859375 L 3.875 -7.859375 C 4.664062 -7.859375 5.289062 -7.6875 5.75 -7.34375 C 6.207031 -7.007812 6.4375 -6.460938 6.4375 -5.703125 C 6.4375 -5.285156 6.359375 -4.921875 6.203125 -4.609375 C 6.054688 -4.296875 5.851562 -4.035156 5.59375 -3.828125 C 5.332031 -3.617188 5.035156 -3.457031 4.703125 -3.34375 L 6.109375 0 L 4.3125 0 L 3.203125 -3.015625 L 2.5625 -3.015625 L 1.921875 0 Z M 2.84375 -4.375 L 3.265625 -4.375 C 3.503906 -4.375 3.710938 -4.398438 3.890625 -4.453125 C 4.078125 -4.503906 4.234375 -4.578125 4.359375 -4.671875 C 4.492188 -4.773438 4.59375 -4.90625 4.65625 -5.0625 C 4.726562 -5.21875 4.765625 -5.398438 4.765625 -5.609375 C 4.765625 -5.910156 4.675781 -6.132812 4.5 -6.28125 C 4.332031 -6.425781 4.066406 -6.5 3.703125 -6.5 L 3.296875 -6.5 Z M 2.84375 -4.375 "/></g></g><g style="fill:#071658;fill-opacity:1;"><g transform="translate(450.78272, 323.731455)"><path style="stroke:none" d="M 0.28125 0 L 1.953125 -7.859375 L 4.078125 -7.859375 C 5.046875 -7.859375 5.789062 -7.601562 6.3125 -7.09375 C 6.84375 -6.59375 7.109375 -5.859375 7.109375 -4.890625 C 7.109375 -4.296875 7.046875 -3.742188 6.921875 -3.234375 C 6.796875 -2.734375 6.613281 -2.28125 6.375 -1.875 C 6.132812 -1.476562 5.832031 -1.140625 5.46875 -0.859375 C 5.113281 -0.578125 4.707031 -0.363281 4.25 -0.21875 C 3.789062 -0.0703125 3.273438 0 2.703125 0 Z M 2.21875 -1.375 L 2.78125 -1.375 C 3.144531 -1.375 3.46875 -1.429688 3.75 -1.546875 C 4.039062 -1.671875 4.289062 -1.835938 4.5 -2.046875 C 4.707031 -2.265625 4.878906 -2.519531 5.015625 -2.8125 C 5.160156 -3.101562 5.265625 -3.414062 5.328125 -3.75 C 5.398438 -4.09375 5.4375 -4.441406 5.4375 -4.796875 C 5.4375 -5.378906 5.300781 -5.804688 5.03125 -6.078125 C 4.757812 -6.359375 4.390625 -6.5 3.921875 -6.5 L 3.296875 -6.5 Z M 2.21875 -1.375 "/></g></g><g style="fill:#071658;fill-opacity:1;"><g transform="translate(467.050819, 323.731455)"><path style="stroke:none" d="M 0.28125 0 L 1.953125 -7.859375 L 6.34375 -7.859375 L 6.0625 -6.5 L 3.296875 -6.5 L 2.9375 -4.765625 L 5.515625 -4.765625 L 5.21875 -3.40625 L 2.640625 -3.40625 L 2.21875 -1.375 L 4.96875 -1.375 L 4.671875 0 Z M 0.28125 0 "/></g></g><g style="fill:#071658;fill-opacity:1;"><g transform="translate(481.834326, 323.731455)"><path style="stroke:none" d="M 0.28125 0 L 1.953125 -7.859375 L 4.125 -7.859375 L 4.46875 -1.984375 L 4.515625 -1.984375 L 7.46875 -7.859375 L 9.75 -7.859375 L 8.078125 0 L 6.578125 0 L 7.359375 -3.71875 C 7.410156 -3.96875 7.46875 -4.234375 7.53125 -4.515625 C 7.601562 -4.796875 7.675781 -5.070312 7.75 -5.34375 C 7.820312 -5.625 7.882812 -5.875 7.9375 -6.09375 L 7.890625 -6.09375 L 4.828125 0 L 3.328125 0 L 3 -6.09375 L 2.953125 -6.09375 C 2.929688 -5.9375 2.898438 -5.722656 2.859375 -5.453125 C 2.816406 -5.179688 2.765625 -4.890625 2.703125 -4.578125 C 2.648438 -4.265625 2.59375 -3.957031 2.53125 -3.65625 L 1.765625 0 Z M 0.28125 0 "/></g></g><g style="fill:#071658;fill-opacity:1;"><g transform="translate(500.34007, 323.731455)"><path style="stroke:none" d="M 0.28125 0 L 1.953125 -7.859375 L 6.34375 -7.859375 L 6.0625 -6.5 L 3.296875 -6.5 L 2.9375 -4.765625 L 5.515625 -4.765625 L 5.21875 -3.40625 L 2.640625 -3.40625 L 2.21875 -1.375 L 4.96875 -1.375 L 4.671875 0 Z M 0.28125 0 "/></g></g><g style="fill:#071658;fill-opacity:1;"><g transform="translate(515.123577, 323.731455)"><path style="stroke:none" d="M 0.28125 0 L 1.953125 -7.859375 L 3.875 -7.859375 L 5.703125 -2.078125 L 5.734375 -2.078125 C 5.765625 -2.222656 5.796875 -2.414062 5.828125 -2.65625 C 5.867188 -2.90625 5.914062 -3.160156 5.96875 -3.421875 C 6.019531 -3.691406 6.066406 -3.929688 6.109375 -4.140625 L 6.890625 -7.859375 L 8.375 -7.859375 L 6.703125 0 L 4.875 0 L 2.953125 -5.953125 L 2.90625 -5.953125 C 2.894531 -5.910156 2.878906 -5.804688 2.859375 -5.640625 C 2.835938 -5.472656 2.804688 -5.273438 2.765625 -5.046875 C 2.734375 -4.816406 2.695312 -4.582031 2.65625 -4.34375 C 2.625 -4.101562 2.585938 -3.890625 2.546875 -3.703125 L 1.765625 0 Z M 0.28125 0 "/></g></g><g style="fill:#071658;fill-opacity:1;"><g transform="translate(532.252308, 323.731455)"><path style="stroke:none" d="M 1.4375 0 L 2.796875 -6.46875 L 0.90625 -6.46875 L 1.203125 -7.859375 L 6.625 -7.859375 L 6.34375 -6.46875 L 4.4375 -6.46875 L 3.078125 0 Z M 1.4375 0 "/></g></g><g style="fill:#071658;fill-opacity:1;"><g transform="translate(546.9121, 323.731455)"><path style="stroke:none" d=""/></g></g><g style="fill:#071658;fill-opacity:1;"><g transform="translate(558.586572, 323.731455)"><path style="stroke:none" d="M -0.65625 0 L 3.453125 -7.859375 L 5.46875 -7.859375 L 6.25 0 L 4.65625 0 L 4.53125 -1.875 L 1.984375 -1.875 L 1.0625 0 Z M 2.65625 -3.265625 L 4.453125 -3.265625 L 4.3125 -5.296875 C 4.289062 -5.515625 4.273438 -5.734375 4.265625 -5.953125 C 4.253906 -6.171875 4.25 -6.394531 4.25 -6.625 L 4.234375 -6.625 C 4.160156 -6.425781 4.078125 -6.226562 3.984375 -6.03125 C 3.898438 -5.832031 3.800781 -5.625 3.6875 -5.40625 Z M 2.65625 -3.265625 "/></g></g><g style="fill:#071658;fill-opacity:1;"><g transform="translate(574.316775, 323.731455)"><path style="stroke:none" d="M 3.25 0.109375 C 2.707031 0.109375 2.25 0.0195312 1.875 -0.15625 C 1.507812 -0.34375 1.234375 -0.601562 1.046875 -0.9375 C 0.859375 -1.269531 0.765625 -1.660156 0.765625 -2.109375 C 0.765625 -2.222656 0.769531 -2.347656 0.78125 -2.484375 C 0.789062 -2.628906 0.8125 -2.769531 0.84375 -2.90625 L 1.890625 -7.859375 L 3.53125 -7.859375 L 2.484375 -2.921875 C 2.460938 -2.796875 2.441406 -2.675781 2.421875 -2.5625 C 2.410156 -2.445312 2.40625 -2.34375 2.40625 -2.25 C 2.40625 -1.9375 2.488281 -1.695312 2.65625 -1.53125 C 2.820312 -1.375 3.078125 -1.296875 3.421875 -1.296875 C 3.734375 -1.296875 3.992188 -1.351562 4.203125 -1.46875 C 4.421875 -1.59375 4.59375 -1.773438 4.71875 -2.015625 C 4.84375 -2.265625 4.945312 -2.570312 5.03125 -2.9375 L 6.0625 -7.859375 L 7.71875 -7.859375 L 6.625 -2.78125 C 6.507812 -2.21875 6.316406 -1.71875 6.046875 -1.28125 C 5.785156 -0.851562 5.425781 -0.515625 4.96875 -0.265625 C 4.507812 -0.015625 3.9375 0.109375 3.25 0.109375 Z M 3.25 0.109375 "/></g></g><g style="fill:#071658;fill-opacity:1;"><g transform="translate(590.740862, 323.731455)"><path style="stroke:none" d=""/></g></g><g style="fill:#071658;fill-opacity:1;"><g transform="translate(602.415334, 323.731455)"><path style="stroke:none" d="M 0.28125 0 L 1.953125 -7.859375 L 3.875 -7.859375 C 4.664062 -7.859375 5.289062 -7.6875 5.75 -7.34375 C 6.207031 -7.007812 6.4375 -6.460938 6.4375 -5.703125 C 6.4375 -5.285156 6.359375 -4.921875 6.203125 -4.609375 C 6.054688 -4.296875 5.851562 -4.035156 5.59375 -3.828125 C 5.332031 -3.617188 5.035156 -3.457031 4.703125 -3.34375 L 6.109375 0 L 4.3125 0 L 3.203125 -3.015625 L 2.5625 -3.015625 L 1.921875 0 Z M 2.84375 -4.375 L 3.265625 -4.375 C 3.503906 -4.375 3.710938 -4.398438 3.890625 -4.453125 C 4.078125 -4.503906 4.234375 -4.578125 4.359375 -4.671875 C 4.492188 -4.773438 4.59375 -4.90625 4.65625 -5.0625 C 4.726562 -5.21875 4.765625 -5.398438 4.765625 -5.609375 C 4.765625 -5.910156 4.675781 -6.132812 4.5 -6.28125 C 4.332031 -6.425781 4.066406 -6.5 3.703125 -6.5 L 3.296875 -6.5 Z M 2.84375 -4.375 "/></g></g><g style="fill:#071658;fill-opacity:1;"><g transform="translate(617.935744, 323.731455)"><path style="stroke:none" d="M 0.28125 0 L 1.953125 -7.859375 L 6.34375 -7.859375 L 6.0625 -6.5 L 3.296875 -6.5 L 2.9375 -4.765625 L 5.515625 -4.765625 L 5.21875 -3.40625 L 2.640625 -3.40625 L 2.21875 -1.375 L 4.96875 -1.375 L 4.671875 0 Z M 3.3125 -8.515625 L 3.3125 -8.65625 C 3.425781 -8.789062 3.550781 -8.953125 3.6875 -9.140625 C 3.832031 -9.328125 3.972656 -9.519531 4.109375 -9.71875 C 4.253906 -9.925781 4.382812 -10.113281 4.5 -10.28125 L 6.296875 -10.28125 L 6.296875 -10.1875 C 6.222656 -10.09375 6.109375 -9.96875 5.953125 -9.8125 C 5.804688 -9.664062 5.640625 -9.507812 5.453125 -9.34375 C 5.273438 -9.1875 5.09375 -9.035156 4.90625 -8.890625 C 4.726562 -8.742188 4.566406 -8.617188 4.421875 -8.515625 Z M 3.3125 -8.515625 "/></g></g><g style="fill:#071658;fill-opacity:1;"><g transform="translate(632.719265, 323.731455)"><path style="stroke:none" d="M 2.140625 0.109375 C 1.742188 0.109375 1.378906 0.0664062 1.046875 -0.015625 C 0.722656 -0.109375 0.445312 -0.226562 0.21875 -0.375 L 0.21875 -1.84375 C 0.539062 -1.664062 0.859375 -1.523438 1.171875 -1.421875 C 1.492188 -1.316406 1.816406 -1.265625 2.140625 -1.265625 C 2.328125 -1.265625 2.5 -1.28125 2.65625 -1.3125 C 2.8125 -1.351562 2.945312 -1.410156 3.0625 -1.484375 C 3.175781 -1.554688 3.265625 -1.644531 3.328125 -1.75 C 3.390625 -1.851562 3.421875 -1.976562 3.421875 -2.125 C 3.421875 -2.332031 3.378906 -2.503906 3.296875 -2.640625 C 3.222656 -2.773438 3.113281 -2.898438 2.96875 -3.015625 C 2.832031 -3.140625 2.671875 -3.269531 2.484375 -3.40625 C 2.265625 -3.5625 2.050781 -3.738281 1.84375 -3.9375 C 1.632812 -4.144531 1.460938 -4.378906 1.328125 -4.640625 C 1.203125 -4.910156 1.140625 -5.222656 1.140625 -5.578125 C 1.140625 -5.929688 1.203125 -6.253906 1.328125 -6.546875 C 1.453125 -6.835938 1.632812 -7.085938 1.875 -7.296875 C 2.113281 -7.515625 2.394531 -7.679688 2.71875 -7.796875 C 3.050781 -7.921875 3.421875 -7.984375 3.828125 -7.984375 C 4.234375 -7.984375 4.609375 -7.9375 4.953125 -7.84375 C 5.304688 -7.757812 5.644531 -7.625 5.96875 -7.4375 L 5.390625 -6.1875 C 5.109375 -6.320312 4.835938 -6.421875 4.578125 -6.484375 C 4.328125 -6.554688 4.078125 -6.59375 3.828125 -6.59375 C 3.679688 -6.59375 3.546875 -6.570312 3.421875 -6.53125 C 3.304688 -6.488281 3.203125 -6.425781 3.109375 -6.34375 C 3.015625 -6.269531 2.941406 -6.175781 2.890625 -6.0625 C 2.835938 -5.957031 2.8125 -5.835938 2.8125 -5.703125 C 2.8125 -5.515625 2.847656 -5.351562 2.921875 -5.21875 C 3.003906 -5.09375 3.117188 -4.972656 3.265625 -4.859375 C 3.410156 -4.742188 3.585938 -4.617188 3.796875 -4.484375 C 4.085938 -4.296875 4.328125 -4.09375 4.515625 -3.875 C 4.703125 -3.65625 4.84375 -3.414062 4.9375 -3.15625 C 5.039062 -2.90625 5.09375 -2.628906 5.09375 -2.328125 C 5.09375 -1.910156 5.015625 -1.550781 4.859375 -1.25 C 4.703125 -0.945312 4.488281 -0.691406 4.21875 -0.484375 C 3.945312 -0.285156 3.632812 -0.132812 3.28125 -0.03125 C 2.925781 0.0625 2.546875 0.109375 2.140625 0.109375 Z M 2.140625 0.109375 "/></g></g><g style="fill:#071658;fill-opacity:1;"><g transform="translate(647.368313, 323.731455)"><path style="stroke:none" d="M 0.28125 0 L 1.953125 -7.859375 L 6.34375 -7.859375 L 6.0625 -6.5 L 3.296875 -6.5 L 2.9375 -4.765625 L 5.515625 -4.765625 L 5.21875 -3.40625 L 2.640625 -3.40625 L 2.21875 -1.375 L 4.96875 -1.375 L 4.671875 0 Z M 0.28125 0 "/></g></g><g style="fill:#071658;fill-opacity:1;"><g transform="translate(662.151806, 323.731455)"><path style="stroke:none" d="M -0.65625 0 L 3.453125 -7.859375 L 5.46875 -7.859375 L 6.25 0 L 4.65625 0 L 4.53125 -1.875 L 1.984375 -1.875 L 1.0625 0 Z M 2.65625 -3.265625 L 4.453125 -3.265625 L 4.3125 -5.296875 C 4.289062 -5.515625 4.273438 -5.734375 4.265625 -5.953125 C 4.253906 -6.171875 4.25 -6.394531 4.25 -6.625 L 4.234375 -6.625 C 4.160156 -6.425781 4.078125 -6.226562 3.984375 -6.03125 C 3.898438 -5.832031 3.800781 -5.625 3.6875 -5.40625 Z M 2.65625 -3.265625 "/></g></g><g style="fill:#071658;fill-opacity:1;"><g transform="translate(677.881995, 323.731455)"><path style="stroke:none" d="M 3.25 0.109375 C 2.707031 0.109375 2.25 0.0195312 1.875 -0.15625 C 1.507812 -0.34375 1.234375 -0.601562 1.046875 -0.9375 C 0.859375 -1.269531 0.765625 -1.660156 0.765625 -2.109375 C 0.765625 -2.222656 0.769531 -2.347656 0.78125 -2.484375 C 0.789062 -2.628906 0.8125 -2.769531 0.84375 -2.90625 L 1.890625 -7.859375 L 3.53125 -7.859375 L 2.484375 -2.921875 C 2.460938 -2.796875 2.441406 -2.675781 2.421875 -2.5625 C 2.410156 -2.445312 2.40625 -2.34375 2.40625 -2.25 C 2.40625 -1.9375 2.488281 -1.695312 2.65625 -1.53125 C 2.820312 -1.375 3.078125 -1.296875 3.421875 -1.296875 C 3.734375 -1.296875 3.992188 -1.351562 4.203125 -1.46875 C 4.421875 -1.59375 4.59375 -1.773438 4.71875 -2.015625 C 4.84375 -2.265625 4.945312 -2.570312 5.03125 -2.9375 L 6.0625 -7.859375 L 7.71875 -7.859375 L 6.625 -2.78125 C 6.507812 -2.21875 6.316406 -1.71875 6.046875 -1.28125 C 5.785156 -0.851562 5.425781 -0.515625 4.96875 -0.265625 C 4.507812 -0.015625 3.9375 0.109375 3.25 0.109375 Z M 3.25 0.109375 "/></g></g><g style="fill:#071658;fill-opacity:1;"><g transform="translate(356.051871, 335.66556)"><path style="stroke:none" d="M 0.3125 0 L 1.75 -7.1875 L 3.328125 -7.1875 C 4.328125 -7.1875 5.101562 -6.953125 5.65625 -6.484375 C 6.21875 -6.023438 6.5 -5.316406 6.5 -4.359375 C 6.5 -3.660156 6.398438 -3.035156 6.203125 -2.484375 C 6.015625 -1.941406 5.742188 -1.484375 5.390625 -1.109375 C 5.046875 -0.742188 4.628906 -0.46875 4.140625 -0.28125 C 3.660156 -0.09375 3.132812 0 2.5625 0 Z M 2.078125 -1.21875 L 2.515625 -1.21875 C 2.867188 -1.21875 3.191406 -1.273438 3.484375 -1.390625 C 3.785156 -1.515625 4.039062 -1.703125 4.25 -1.953125 C 4.46875 -2.203125 4.640625 -2.519531 4.765625 -2.90625 C 4.890625 -3.289062 4.953125 -3.742188 4.953125 -4.265625 C 4.953125 -4.859375 4.800781 -5.289062 4.5 -5.5625 C 4.195312 -5.832031 3.796875 -5.96875 3.296875 -5.96875 L 3 -5.96875 Z M 2.078125 -1.21875 "/></g></g><g style="fill:#071658;fill-opacity:1;"><g transform="translate(371.65071, 335.66556)"><path style="stroke:none" d="M 1.328125 -4 L 1.5625 -6 L 1.765625 -7.375 L 3.25 -7.375 L 2.9375 -6 L 2.3125 -4 Z M 1.328125 -4 "/></g></g><g style="fill:#071658;fill-opacity:1;"><g transform="translate(383.669281, 335.66556)"><path style="stroke:none" d="M 0.3125 0 L 1.75 -7.1875 L 6 -7.1875 L 5.765625 -5.921875 L 3 -5.921875 L 2.6875 -4.34375 L 5.03125 -4.34375 L 4.796875 -3.078125 L 2.453125 -3.078125 L 2.078125 -1.265625 L 4.921875 -1.265625 L 4.6875 0 Z M 3.703125 -7.5625 L 3.125 -8.421875 L 5.265625 -9.796875 L 5.953125 -8.6875 Z M 3.703125 -7.5625 "/></g></g><g style="fill:#071658;fill-opacity:1;"><g transform="translate(398.287679, 335.66556)"><path style="stroke:none" d="M 0.3125 0 L 1.75 -7.1875 L 3.265625 -7.1875 L 2.078125 -1.265625 L 4.796875 -1.265625 L 4.546875 0 Z M 0.3125 0 "/></g></g><g style="fill:#071658;fill-opacity:1;"><g transform="translate(412.608639, 335.66556)"><path style="stroke:none" d="M 0.3125 0 L 1.75 -7.1875 L 6 -7.1875 L 5.765625 -5.921875 L 3 -5.921875 L 2.6875 -4.34375 L 5.03125 -4.34375 L 4.796875 -3.078125 L 2.453125 -3.078125 L 2.078125 -1.265625 L 4.921875 -1.265625 L 4.6875 0 Z M 0.3125 0 "/></g></g><g style="fill:#071658;fill-opacity:1;"><g transform="translate(427.227037, 335.66556)"><path style="stroke:none" d="M 3.34375 0.125 C 2.925781 0.125 2.550781 0.0546875 2.21875 -0.078125 C 1.882812 -0.210938 1.597656 -0.410156 1.359375 -0.671875 C 1.117188 -0.929688 0.929688 -1.242188 0.796875 -1.609375 C 0.671875 -1.984375 0.609375 -2.40625 0.609375 -2.875 C 0.609375 -3.488281 0.707031 -4.066406 0.90625 -4.609375 C 1.113281 -5.148438 1.382812 -5.617188 1.71875 -6.015625 C 2.0625 -6.421875 2.46875 -6.738281 2.9375 -6.96875 C 3.40625 -7.195312 3.90625 -7.3125 4.4375 -7.3125 C 4.851562 -7.3125 5.222656 -7.207031 5.546875 -7 C 5.878906 -6.800781 6.148438 -6.523438 6.359375 -6.171875 L 5.328125 -5.375 C 5.191406 -5.582031 5.046875 -5.738281 4.890625 -5.84375 C 4.734375 -5.945312 4.554688 -6 4.359375 -6 C 4.054688 -6 3.769531 -5.914062 3.5 -5.75 C 3.238281 -5.59375 3.007812 -5.375 2.8125 -5.09375 C 2.613281 -4.8125 2.457031 -4.484375 2.34375 -4.109375 C 2.226562 -3.742188 2.171875 -3.363281 2.171875 -2.96875 C 2.171875 -2.414062 2.285156 -1.976562 2.515625 -1.65625 C 2.753906 -1.332031 3.140625 -1.171875 3.671875 -1.171875 C 3.878906 -1.171875 4.085938 -1.21875 4.296875 -1.3125 C 4.503906 -1.414062 4.703125 -1.550781 4.890625 -1.71875 L 5.515625 -0.75 C 5.410156 -0.644531 5.28125 -0.539062 5.125 -0.4375 C 4.976562 -0.332031 4.8125 -0.238281 4.625 -0.15625 C 4.445312 -0.0703125 4.25 -0.00390625 4.03125 0.046875 C 3.820312 0.0976562 3.59375 0.125 3.34375 0.125 Z M 3.34375 0.125 "/></g></g><g style="fill:#071658;fill-opacity:1;"><g transform="translate(442.065749, 335.66556)"><path style="stroke:none" d="M 1.640625 0 L 2.8125 -5.90625 L 0.921875 -5.90625 L 1.171875 -7.1875 L 6.453125 -7.1875 L 6.203125 -5.90625 L 4.3125 -5.90625 L 3.15625 0 Z M 1.640625 0 "/></g></g><g style="fill:#071658;fill-opacity:1;"><g transform="translate(456.739226, 335.66556)"><path style="stroke:none" d="M 0.3125 0 L 1.75 -7.1875 L 4 -7.1875 C 4.351562 -7.1875 4.679688 -7.148438 4.984375 -7.078125 C 5.285156 -7.015625 5.539062 -6.910156 5.75 -6.765625 C 5.96875 -6.617188 6.140625 -6.425781 6.265625 -6.1875 C 6.390625 -5.957031 6.453125 -5.675781 6.453125 -5.34375 C 6.453125 -5 6.40625 -4.691406 6.3125 -4.421875 C 6.226562 -4.160156 6.101562 -3.925781 5.9375 -3.71875 C 5.769531 -3.519531 5.570312 -3.34375 5.34375 -3.1875 C 5.125 -3.039062 4.882812 -2.925781 4.625 -2.84375 L 5.734375 0 L 4.15625 0 L 3.234375 -2.625 L 2.34375 -2.625 L 1.828125 0 Z M 2.59375 -3.828125 L 3.34375 -3.828125 C 3.882812 -3.828125 4.289062 -3.941406 4.5625 -4.171875 C 4.832031 -4.410156 4.96875 -4.726562 4.96875 -5.125 C 4.96875 -5.425781 4.863281 -5.644531 4.65625 -5.78125 C 4.445312 -5.914062 4.148438 -5.984375 3.765625 -5.984375 L 3 -5.984375 Z M 2.59375 -3.828125 "/></g></g><g style="fill:#071658;fill-opacity:1;"><g transform="translate(472.117737, 335.66556)"><path style="stroke:none" d="M 0.3125 0 L 1.75 -7.1875 L 3.265625 -7.1875 L 1.828125 0 Z M 0.3125 0 "/></g></g><g style="fill:#071658;fill-opacity:1;"><g transform="translate(484.169367, 335.66556)"><path style="stroke:none" d="M 3.34375 0.125 C 2.925781 0.125 2.550781 0.0546875 2.21875 -0.078125 C 1.882812 -0.210938 1.597656 -0.410156 1.359375 -0.671875 C 1.117188 -0.929688 0.929688 -1.242188 0.796875 -1.609375 C 0.671875 -1.984375 0.609375 -2.40625 0.609375 -2.875 C 0.609375 -3.488281 0.707031 -4.066406 0.90625 -4.609375 C 1.113281 -5.148438 1.382812 -5.617188 1.71875 -6.015625 C 2.0625 -6.421875 2.46875 -6.738281 2.9375 -6.96875 C 3.40625 -7.195312 3.90625 -7.3125 4.4375 -7.3125 C 4.851562 -7.3125 5.222656 -7.207031 5.546875 -7 C 5.878906 -6.800781 6.148438 -6.523438 6.359375 -6.171875 L 5.328125 -5.375 C 5.191406 -5.582031 5.046875 -5.738281 4.890625 -5.84375 C 4.734375 -5.945312 4.554688 -6 4.359375 -6 C 4.054688 -6 3.769531 -5.914062 3.5 -5.75 C 3.238281 -5.59375 3.007812 -5.375 2.8125 -5.09375 C 2.613281 -4.8125 2.457031 -4.484375 2.34375 -4.109375 C 2.226562 -3.742188 2.171875 -3.363281 2.171875 -2.96875 C 2.171875 -2.414062 2.285156 -1.976562 2.515625 -1.65625 C 2.753906 -1.332031 3.140625 -1.171875 3.671875 -1.171875 C 3.878906 -1.171875 4.085938 -1.21875 4.296875 -1.3125 C 4.503906 -1.414062 4.703125 -1.550781 4.890625 -1.71875 L 5.515625 -0.75 C 5.410156 -0.644531 5.28125 -0.539062 5.125 -0.4375 C 4.976562 -0.332031 4.8125 -0.238281 4.625 -0.15625 C 4.445312 -0.0703125 4.25 -0.00390625 4.03125 0.046875 C 3.820312 0.0976562 3.59375 0.125 3.34375 0.125 Z M 3.34375 0.125 "/></g></g><g style="fill:#071658;fill-opacity:1;"><g transform="translate(499.228405, 335.66556)"><path style="stroke:none" d="M 0.3125 0 L 1.75 -7.1875 L 3.265625 -7.1875 L 1.828125 0 Z M 0.3125 0 "/></g></g><g style="fill:#071658;fill-opacity:1;"><g transform="translate(511.280034, 335.66556)"><path style="stroke:none" d="M 1.640625 0 L 2.8125 -5.90625 L 0.921875 -5.90625 L 1.171875 -7.1875 L 6.453125 -7.1875 L 6.203125 -5.90625 L 4.3125 -5.90625 L 3.15625 0 Z M 1.640625 0 "/></g></g><g style="fill:#071658;fill-opacity:1;"><g transform="translate(525.953511, 335.66556)"><path style="stroke:none" d="M 0.3125 0 L 1.75 -7.1875 L 6 -7.1875 L 5.765625 -5.921875 L 3 -5.921875 L 2.6875 -4.34375 L 5.03125 -4.34375 L 4.796875 -3.078125 L 2.453125 -3.078125 L 2.078125 -1.265625 L 4.921875 -1.265625 L 4.6875 0 Z M 3.703125 -7.5625 L 3.125 -8.421875 L 5.265625 -9.796875 L 5.953125 -8.6875 Z M 3.703125 -7.5625 "/></g></g><g style="fill:#071658;fill-opacity:1;"><g transform="translate(540.57191, 335.66556)"><path style="stroke:none" d=""/></g></g><g style="fill:#071658;fill-opacity:1;"><g transform="translate(551.565986, 335.66556)"><path style="stroke:none" d="M 0.3125 0 L 1.75 -7.1875 L 3.328125 -7.1875 C 4.328125 -7.1875 5.101562 -6.953125 5.65625 -6.484375 C 6.21875 -6.023438 6.5 -5.316406 6.5 -4.359375 C 6.5 -3.660156 6.398438 -3.035156 6.203125 -2.484375 C 6.015625 -1.941406 5.742188 -1.484375 5.390625 -1.109375 C 5.046875 -0.742188 4.628906 -0.46875 4.140625 -0.28125 C 3.660156 -0.09375 3.132812 0 2.5625 0 Z M 2.078125 -1.21875 L 2.515625 -1.21875 C 2.867188 -1.21875 3.191406 -1.273438 3.484375 -1.390625 C 3.785156 -1.515625 4.039062 -1.703125 4.25 -1.953125 C 4.46875 -2.203125 4.640625 -2.519531 4.765625 -2.90625 C 4.890625 -3.289062 4.953125 -3.742188 4.953125 -4.265625 C 4.953125 -4.859375 4.800781 -5.289062 4.5 -5.5625 C 4.195312 -5.832031 3.796875 -5.96875 3.296875 -5.96875 L 3 -5.96875 Z M 2.078125 -1.21875 "/></g></g><g style="fill:#071658;fill-opacity:1;"><g transform="translate(567.164825, 335.66556)"><path style="stroke:none" d="M 1.328125 -4 L 1.5625 -6 L 1.765625 -7.375 L 3.25 -7.375 L 2.9375 -6 L 2.3125 -4 Z M 1.328125 -4 "/></g></g><g style="fill:#071658;fill-opacity:1;"><g transform="translate(579.183396, 335.66556)"><path style="stroke:none" d=""/></g></g><g style="fill:#071658;fill-opacity:1;"><g transform="translate(590.177473, 335.66556)"><path style="stroke:none" d="M 0.3125 0 L 1.75 -7.1875 L 3.21875 -7.1875 L 4.390625 -3.4375 L 4.765625 -1.859375 L 4.8125 -1.859375 C 4.832031 -2.046875 4.847656 -2.25 4.859375 -2.46875 C 4.878906 -2.6875 4.898438 -2.90625 4.921875 -3.125 C 4.941406 -3.351562 4.96875 -3.582031 5 -3.8125 C 5.03125 -4.039062 5.066406 -4.257812 5.109375 -4.46875 L 5.65625 -7.1875 L 7.09375 -7.1875 L 5.65625 0 L 4.203125 0 L 3.03125 -3.734375 L 2.671875 -5.328125 L 2.625 -5.328125 C 2.582031 -4.921875 2.535156 -4.492188 2.484375 -4.046875 C 2.441406 -3.597656 2.378906 -3.164062 2.296875 -2.75 L 1.75 0 Z M 0.3125 0 "/></g></g><g style="fill:#071658;fill-opacity:1;"><g transform="translate(606.073751, 335.66556)"><path style="stroke:none" d="M 0.3125 0 L 1.75 -7.1875 L 6 -7.1875 L 5.765625 -5.921875 L 3 -5.921875 L 2.6875 -4.34375 L 5.03125 -4.34375 L 4.796875 -3.078125 L 2.453125 -3.078125 L 2.078125 -1.265625 L 4.921875 -1.265625 L 4.6875 0 Z M 0.3125 0 "/></g></g><g style="fill:#071658;fill-opacity:1;"><g transform="translate(620.692121, 335.66556)"><path style="stroke:none" d="M 0.3125 0 L 1.75 -7.1875 L 3.328125 -7.1875 C 4.328125 -7.1875 5.101562 -6.953125 5.65625 -6.484375 C 6.21875 -6.023438 6.5 -5.316406 6.5 -4.359375 C 6.5 -3.660156 6.398438 -3.035156 6.203125 -2.484375 C 6.015625 -1.941406 5.742188 -1.484375 5.390625 -1.109375 C 5.046875 -0.742188 4.628906 -0.46875 4.140625 -0.28125 C 3.660156 -0.09375 3.132812 0 2.5625 0 Z M 2.078125 -1.21875 L 2.515625 -1.21875 C 2.867188 -1.21875 3.191406 -1.273438 3.484375 -1.390625 C 3.785156 -1.515625 4.039062 -1.703125 4.25 -1.953125 C 4.46875 -2.203125 4.640625 -2.519531 4.765625 -2.90625 C 4.890625 -3.289062 4.953125 -3.742188 4.953125 -4.265625 C 4.953125 -4.859375 4.800781 -5.289062 4.5 -5.5625 C 4.195312 -5.832031 3.796875 -5.96875 3.296875 -5.96875 L 3 -5.96875 Z M 2.078125 -1.21875 "/></g></g><g style="fill:#071658;fill-opacity:1;"><g transform="translate(636.290974, 335.66556)"><path style="stroke:none" d="M 0.3125 0 L 1.75 -7.1875 L 3.265625 -7.1875 L 1.828125 0 Z M 0.3125 0 "/></g></g><g style="fill:#071658;fill-opacity:1;"><g transform="translate(648.342603, 335.66556)"><path style="stroke:none" d="M 2.625 0.125 C 2.15625 0.125 1.695312 0.0234375 1.25 -0.171875 C 0.800781 -0.378906 0.40625 -0.726562 0.0625 -1.21875 L 1.140625 -2.0625 C 1.328125 -1.78125 1.5625 -1.554688 1.84375 -1.390625 C 2.125 -1.234375 2.421875 -1.15625 2.734375 -1.15625 C 3.035156 -1.15625 3.28125 -1.226562 3.46875 -1.375 C 3.664062 -1.519531 3.765625 -1.722656 3.765625 -1.984375 C 3.765625 -2.171875 3.6875 -2.320312 3.53125 -2.4375 C 3.382812 -2.5625 3.1875 -2.707031 2.9375 -2.875 L 2.25 -3.296875 C 1.914062 -3.503906 1.648438 -3.742188 1.453125 -4.015625 C 1.265625 -4.285156 1.171875 -4.644531 1.171875 -5.09375 C 1.171875 -5.394531 1.238281 -5.679688 1.375 -5.953125 C 1.507812 -6.222656 1.6875 -6.457031 1.90625 -6.65625 C 2.132812 -6.863281 2.398438 -7.023438 2.703125 -7.140625 C 3.015625 -7.253906 3.347656 -7.3125 3.703125 -7.3125 C 4.128906 -7.3125 4.53125 -7.210938 4.90625 -7.015625 C 5.28125 -6.816406 5.601562 -6.550781 5.875 -6.21875 L 4.921875 -5.328125 C 4.742188 -5.523438 4.550781 -5.6875 4.34375 -5.8125 C 4.132812 -5.9375 3.898438 -6 3.640625 -6 C 3.335938 -6 3.109375 -5.921875 2.953125 -5.765625 C 2.796875 -5.617188 2.71875 -5.441406 2.71875 -5.234375 C 2.71875 -5.046875 2.796875 -4.894531 2.953125 -4.78125 C 3.117188 -4.664062 3.34375 -4.519531 3.625 -4.34375 L 4.328125 -3.90625 C 4.679688 -3.695312 4.9375 -3.460938 5.09375 -3.203125 C 5.25 -2.953125 5.328125 -2.617188 5.328125 -2.203125 C 5.328125 -1.867188 5.265625 -1.5625 5.140625 -1.28125 C 5.015625 -1 4.832031 -0.753906 4.59375 -0.546875 C 4.351562 -0.335938 4.066406 -0.171875 3.734375 -0.046875 C 3.398438 0.0664062 3.03125 0.125 2.625 0.125 Z M 2.625 0.125 "/></g></g><path style=" stroke:none;fill-rule:nonzero;fill:#ffd013;fill-opacity:1;" d="M 388.285156 232.515625 C 394.191406 229.890625 414.449219 235.707031 418.597656 242.722656 C 422.742188 249.738281 423.066406 254.53125 420.511719 261.554688 C 417.957031 268.582031 411.605469 273.679688 405.210938 274.632812 C 398.816406 275.589844 389.5625 277.503906 383.816406 270.488281 C 378.066406 263.472656 375.835938 262.824219 375.523438 259.957031 C 375.207031 257.085938 373.605469 248.15625 377.753906 241.769531 C 381.898438 235.382812 382.539062 235.066406 388.285156 232.515625 Z M 388.285156 232.515625 "/><path style=" stroke:none;fill-rule:nonzero;fill:#000000;fill-opacity:1;" d="M 418.226562 247.609375 C 417.46875 244.425781 415.214844 241.65625 412.429688 239.984375 C 408.902344 237.871094 404.644531 237.328125 400.589844 237.511719 C 397.105469 237.671875 393.632812 238.296875 390.421875 239.683594 C 384.535156 242.226562 380.023438 247.78125 380.507812 254.4375 C 380.636719 256.121094 381.09375 257.777344 381.964844 259.222656 C 382.996094 260.90625 384.464844 262.121094 386.050781 263.25 C 389.148438 265.433594 393.164062 268.917969 392.019531 273.046875 C 391.863281 273.015625 391.707031 272.988281 391.535156 272.960938 C 390.40625 272.761719 390.019531 274.730469 391.164062 274.972656 C 394.476562 275.675781 397.890625 275.988281 401.273438 275.714844 C 401.847656 275.675781 402.558594 275.289062 402.503906 274.589844 C 402.1875 270.832031 403.53125 267.0625 406.359375 264.519531 C 407.84375 263.191406 409.585938 262.207031 411.230469 261.078125 C 412.742188 260.035156 414.128906 258.878906 415.3125 257.480469 C 417.683594 254.78125 419.070312 251.195312 418.226562 247.609375 Z M 413.371094 256.195312 C 410.617188 259.277344 406.53125 260.691406 403.789062 263.777344 C 401.390625 266.476562 400.160156 269.917969 400.160156 273.472656 C 397.675781 273.617188 395.21875 273.53125 392.75 273.175781 C 393.632812 270.71875 392.949219 267.949219 391.492188 265.761719 C 390.492188 264.261719 389.164062 263.105469 387.765625 261.992188 C 386.40625 260.921875 384.949219 259.863281 384.050781 258.335938 C 380.980469 253.152344 383.824219 246.582031 388.421875 243.425781 C 391.105469 241.582031 394.304688 240.613281 397.492188 240.125 C 401.160156 239.570312 405.132812 239.570312 408.6875 240.785156 C 411.730469 241.824219 414.5 243.996094 415.65625 247.082031 C 416.871094 250.339844 415.601562 253.707031 413.371094 256.195312 Z M 413.371094 256.195312 "/><path style=" stroke:none;fill-rule:nonzero;fill:#000000;fill-opacity:1;" d="M 401.917969 258.222656 C 400.648438 258.035156 399.976562 259.078125 399.53125 260.09375 C 399.519531 260.078125 399.519531 260.078125 399.503906 260.0625 C 400.632812 257.992188 401.304688 255.121094 399.761719 253.238281 C 399.460938 252.867188 398.917969 252.894531 398.574219 253.164062 C 397.574219 253.953125 397.417969 255.28125 397.304688 256.480469 C 397.191406 257.59375 397.21875 258.75 397.648438 259.777344 C 397.503906 259.992188 397.363281 260.191406 397.191406 260.378906 C 396.734375 258.578125 395.535156 256.707031 393.464844 257.636719 C 391.578125 258.492188 391.378906 261.261719 392.976562 262.476562 C 393.847656 263.132812 394.820312 263.292969 395.761719 263.105469 C 395.863281 265.632812 395.460938 268.0625 394.90625 270.519531 C 394.761719 271.117188 395.546875 271.359375 395.804688 270.804688 C 395.832031 270.746094 395.847656 270.703125 395.875 270.648438 C 396.046875 271.304688 397.148438 271.519531 397.375 270.703125 C 397.875 268.863281 398.433594 267.035156 399.03125 265.21875 C 399.320312 264.378906 399.605469 263.535156 399.902344 262.691406 C 399.988281 262.449219 400.074219 262.191406 400.160156 261.933594 C 400.359375 261.964844 400.5625 261.976562 400.773438 261.964844 C 401.789062 261.890625 402.789062 261.261719 403.089844 260.265625 C 403.359375 259.394531 402.917969 258.363281 401.917969 258.222656 Z M 398.902344 255.664062 C 398.960938 256.222656 398.890625 256.808594 398.734375 257.378906 C 398.746094 257.207031 398.746094 257.035156 398.777344 256.863281 C 398.804688 256.523438 398.820312 256.078125 398.902344 255.664062 Z M 393.890625 260.078125 C 394.089844 259.308594 394.691406 259.265625 395.121094 259.921875 C 395.390625 260.335938 395.535156 260.820312 395.632812 261.320312 C 395.535156 261.335938 395.417969 261.347656 395.304688 261.347656 C 394.546875 261.390625 393.664062 260.964844 393.890625 260.078125 Z M 397.148438 266.347656 C 397.363281 265.046875 397.449219 263.71875 397.433594 262.433594 C 397.917969 262.121094 398.363281 261.71875 398.71875 261.277344 C 398.789062 261.347656 398.875 261.40625 398.945312 261.464844 C 398.304688 263.0625 397.703125 264.707031 397.148438 266.347656 Z M 401.730469 260.050781 C 401.589844 260.40625 401.046875 260.605469 400.660156 260.605469 C 400.746094 260.421875 400.832031 260.25 400.917969 260.078125 C 401.019531 259.835938 401.175781 259.636719 401.402344 259.476562 C 401.847656 259.535156 401.960938 259.722656 401.730469 260.050781 Z M 401.730469 260.050781 "/><path style=" stroke:none;fill-rule:nonzero;fill:#000000;fill-opacity:1;" d="M 400.804688 277.574219 C 400.046875 277.257812 399.160156 277.289062 398.347656 277.246094 C 397.449219 277.203125 396.546875 277.1875 395.648438 277.230469 C 394.046875 277.300781 392.277344 277.332031 390.777344 277.902344 C 389.992188 278.203125 390.433594 279.230469 391.078125 279.328125 C 392.648438 279.558594 394.304688 279.371094 395.90625 279.488281 C 396.675781 279.542969 397.460938 279.601562 398.234375 279.703125 C 399.0625 279.800781 399.847656 280 400.691406 279.886719 C 401.976562 279.714844 401.789062 277.988281 400.804688 277.574219 Z M 400.804688 277.574219 "/><path style=" stroke:none;fill-rule:nonzero;fill:#000000;fill-opacity:1;" d="M 398.632812 281.085938 C 397.589844 280.558594 396.105469 280.773438 394.976562 280.773438 C 393.632812 280.773438 392.320312 280.871094 390.992188 281.058594 C 390.179688 281.171875 390.433594 282.242188 391.105469 282.371094 C 392.0625 282.542969 393.007812 282.699219 393.960938 282.84375 C 393.648438 283.371094 393.492188 283.984375 393.589844 284.542969 C 393.976562 286.628906 396.578125 287.457031 398.261719 286.34375 C 399.875 285.242188 400.730469 282.128906 398.632812 281.085938 Z M 396.289062 284.085938 C 395.789062 284.015625 396.363281 283.601562 396.675781 283.515625 C 396.875 283.457031 397.019531 283.359375 397.132812 283.230469 C 397.175781 283.230469 397.203125 283.214844 397.191406 283.199219 C 397.417969 283.699219 396.648438 284.144531 396.289062 284.085938 Z M 396.289062 284.085938 "/><path style=" stroke:none;fill-rule:nonzero;fill:#000000;fill-opacity:1;" d="M 391.179688 233.5 C 391.378906 234.570312 392.964844 234.398438 393.035156 233.34375 C 393.191406 231.257812 392.804688 229.058594 392.648438 226.972656 C 392.492188 224.917969 392.40625 222.84375 392.121094 220.804688 C 392.007812 219.988281 390.707031 220.101562 390.691406 220.917969 C 390.636719 223.03125 390.792969 225.160156 390.863281 227.273438 C 390.933594 229.316406 390.804688 231.484375 391.179688 233.5 Z M 391.179688 233.5 "/><path style=" stroke:none;fill-rule:nonzero;fill:#000000;fill-opacity:1;" d="M 376.953125 241.367188 C 376.011719 240.839844 375.097656 240.285156 374.195312 239.683594 C 372.425781 238.511719 370.742188 237.199219 369.15625 235.785156 C 368.285156 235 366.882812 236.183594 367.753906 237.027344 C 369.371094 238.585938 371.070312 240.027344 372.898438 241.3125 C 373.769531 241.941406 374.667969 242.527344 375.597656 243.082031 C 376.539062 243.652344 377.554688 244.410156 378.667969 244.496094 C 379.507812 244.566406 379.964844 243.496094 379.425781 242.898438 C 378.796875 242.183594 377.78125 241.839844 376.953125 241.367188 Z M 376.953125 241.367188 "/><g clip-rule="nonzero" clip-path="url(#5e5d9d15da)"><path style=" stroke:none;fill-rule:nonzero;fill:#000000;fill-opacity:1;" d="M 375.480469 255.378906 C 376.496094 255.09375 376.425781 253.578125 375.324219 253.523438 C 373.226562 253.394531 370.953125 254.035156 368.925781 254.566406 C 367.914062 254.835938 366.925781 255.121094 365.941406 255.464844 C 364.941406 255.808594 363.871094 256.109375 363.015625 256.734375 C 362.3125 257.25 363.015625 258.164062 363.699219 258.078125 C 364.65625 257.964844 365.585938 257.535156 366.511719 257.25 C 367.511719 256.949219 368.511719 256.679688 369.527344 256.449219 C 371.46875 256.007812 373.539062 255.921875 375.480469 255.378906 Z M 375.480469 255.378906 "/></g><path style=" stroke:none;fill-rule:nonzero;fill:#000000;fill-opacity:1;" d="M 411.214844 234.5 C 413.015625 231.328125 415.144531 228.488281 417.882812 226.074219 C 419 225.085938 417.457031 223.359375 416.355469 224.34375 C 413.484375 226.945312 411.113281 230.144531 409.6875 233.757812 C 409.34375 234.65625 410.730469 235.34375 411.214844 234.5 Z M 411.214844 234.5 "/><g clip-rule="nonzero" clip-path="url(#cf285d5c0e)"><path style=" stroke:none;fill-rule:nonzero;fill:#000000;fill-opacity:1;" d="M 433.210938 246.109375 C 431.109375 246.039062 428.96875 246.78125 427.023438 247.496094 C 425.011719 248.238281 423.167969 249.253906 421.457031 250.523438 C 420.699219 251.082031 421.554688 252.292969 422.371094 251.867188 C 424.082031 250.9375 425.882812 250.109375 427.738281 249.480469 C 429.597656 248.851562 431.523438 248.652344 433.378906 248.082031 C 434.410156 247.765625 434.394531 246.152344 433.210938 246.109375 Z M 433.210938 246.109375 "/></g><path style=" stroke:none;fill-rule:nonzero;fill:#000000;fill-opacity:1;" d="M 376.324219 266.417969 C 373.839844 268.917969 371.597656 271.632812 369.640625 274.546875 C 368.796875 275.789062 370.8125 277.101562 371.582031 275.832031 C 373.296875 272.945312 375.253906 270.21875 377.46875 267.703125 C 378.179688 266.90625 377.125 265.621094 376.324219 266.417969 Z M 376.324219 266.417969 "/><path style=" stroke:none;fill-rule:nonzero;fill:#000000;fill-opacity:1;" d="M 427.28125 273.546875 C 425.769531 272.359375 424.039062 271.402344 422.410156 270.375 C 420.796875 269.347656 419.171875 268.175781 417.441406 267.332031 C 416.742188 266.992188 415.714844 267.863281 416.441406 268.488281 C 417.898438 269.761719 419.585938 270.804688 421.167969 271.902344 C 422.796875 273.03125 424.410156 274.304688 426.140625 275.273438 C 427.3125 275.917969 428.339844 274.359375 427.28125 273.546875 Z M 427.28125 273.546875 "/><g clip-rule="nonzero" clip-path="url(#5ad6aa9f6e)"><path style=" stroke:none;fill-rule:evenodd;fill:#00c569;fill-opacity:1;" d="M 577.070312 329.914062 L 584.308594 329.914062 C 585.902344 329.914062 587.210938 331.222656 587.210938 332.816406 C 587.210938 334.414062 585.902344 335.71875 584.308594 335.71875 L 571.515625 335.71875 C 571.882812 334.539062 572.988281 333.671875 574.289062 333.671875 L 584.308594 333.671875 C 584.777344 333.671875 585.160156 333.289062 585.160156 332.820312 C 585.160156 332.347656 584.777344 331.964844 584.308594 331.964844 L 574.296875 331.964844 C 574.664062 330.78125 575.773438 329.914062 577.070312 329.914062 Z M 588.488281 337.429688 C 588.121094 338.613281 587.015625 339.476562 585.714844 339.476562 L 578.480469 339.476562 C 577.179688 339.476562 576.074219 338.613281 575.707031 337.429688 Z M 588.488281 337.429688 "/></g></g></svg>