<svg xmlns="http://www.w3.org/2000/svg" xmlns:xlink="http://www.w3.org/1999/xlink" width="500" zoomAndPan="magnify" viewBox="0 0 375 374.999991" height="500" preserveAspectRatio="xMidYMid meet" version="1.2"><defs><clipPath id="7a5f34fc16"><path d="M 113.269531 152.945312 L 178.519531 152.945312 L 178.519531 227.945312 L 113.269531 227.945312 Z M 113.269531 152.945312 "/></clipPath><clipPath id="2623b06a52"><path d="M 163.683594 153.355469 L 173.8125 153.355469 L 173.8125 178.441406 L 163.683594 178.441406 Z M 163.683594 153.355469 "/></clipPath><clipPath id="012ceb13e4"><path d="M 163.683594 173.0625 L 163.683594 154.207031 C 163.683594 153.929688 163.824219 153.671875 164.058594 153.519531 C 164.289062 153.367188 164.585938 153.347656 164.835938 153.460938 L 172.660156 156.972656 C 173.359375 157.289062 173.8125 157.984375 173.8125 158.753906 L 173.8125 177.609375 C 173.8125 177.886719 173.671875 178.148438 173.4375 178.296875 C 173.207031 178.449219 172.914062 178.472656 172.660156 178.359375 L 164.835938 174.84375 C 164.136719 174.53125 163.683594 173.832031 163.683594 173.0625 Z M 163.683594 173.0625 "/></clipPath><clipPath id="a2c2fa3ce1"><path d="M 137 166.21875 L 154.816406 166.21875 L 154.816406 183 L 137 183 Z M 137 166.21875 "/></clipPath><clipPath id="193597d7ad"><path d="M 143 162.59375 L 144 162.59375 L 144 168 L 143 168 Z M 143 162.59375 "/></clipPath><clipPath id="a3642a1cd6"><path d="M 132.667969 174 L 138 174 L 138 177 L 132.667969 177 Z M 132.667969 174 "/></clipPath><clipPath id="2cc8fa982e"><path d="M 154 172 L 158.917969 172 L 158.917969 175 L 154 175 Z M 154 172 "/></clipPath></defs><g id="8121816664"><g clip-rule="nonzero" clip-path="url(#7a5f34fc16)"><path style=" stroke:none;fill-rule:nonzero;fill:#1a2c80;fill-opacity:1;" d="M 167.058594 227.9375 L 124.445312 227.9375 C 123.714844 227.933594 122.992188 227.863281 122.273438 227.71875 C 121.554688 227.578125 120.859375 227.363281 120.183594 227.085938 C 119.511719 226.804688 118.867188 226.460938 118.261719 226.054688 C 117.652344 225.648438 117.089844 225.1875 116.574219 224.671875 C 116.058594 224.152344 115.59375 223.589844 115.1875 222.984375 C 114.78125 222.375 114.4375 221.734375 114.160156 221.058594 C 113.878906 220.382812 113.667969 219.6875 113.523438 218.96875 C 113.378906 218.253906 113.308594 217.53125 113.308594 216.796875 L 113.308594 186.925781 C 113.304688 185.507812 113.570312 184.136719 114.101562 182.820312 C 114.632812 181.503906 115.394531 180.335938 116.386719 179.316406 L 139.183594 155.742188 C 139.605469 155.300781 140.074219 154.902344 140.578125 154.554688 C 141.082031 154.207031 141.617188 153.914062 142.183594 153.671875 C 142.746094 153.433594 143.328125 153.25 143.929688 153.128906 C 144.53125 153.003906 145.140625 152.945312 145.753906 152.945312 C 146.367188 152.945312 146.972656 153.003906 147.574219 153.128906 C 148.175781 153.25 148.757812 153.433594 149.324219 153.671875 C 149.886719 153.914062 150.421875 154.207031 150.925781 154.554688 C 151.433594 154.902344 151.898438 155.300781 152.324219 155.742188 L 177.242188 181.511719 C 177.558594 181.835938 177.800781 182.207031 177.964844 182.625 C 178.132812 183.042969 178.214844 183.476562 178.207031 183.929688 C 178.199219 184.378906 178.109375 184.8125 177.929688 185.226562 C 177.75 185.640625 177.5 186.003906 177.175781 186.316406 C 176.851562 186.628906 176.476562 186.871094 176.058594 187.035156 C 175.640625 187.199219 175.203125 187.277344 174.753906 187.269531 C 174.300781 187.261719 173.871094 187.164062 173.457031 186.984375 C 173.042969 186.804688 172.683594 186.550781 172.371094 186.226562 L 147.445312 160.464844 C 147.226562 160.230469 146.96875 160.046875 146.675781 159.921875 C 146.382812 159.792969 146.074219 159.730469 145.753906 159.730469 C 145.429688 159.730469 145.125 159.792969 144.828125 159.921875 C 144.535156 160.046875 144.277344 160.230469 144.058594 160.464844 L 121.257812 184.027344 C 120.476562 184.839844 120.089844 185.808594 120.097656 186.933594 L 120.097656 216.796875 C 120.097656 217.085938 120.125 217.367188 120.179688 217.648438 C 120.238281 217.929688 120.320312 218.203125 120.429688 218.464844 C 120.539062 218.730469 120.675781 218.980469 120.832031 219.21875 C 120.992188 219.457031 121.171875 219.675781 121.375 219.878906 C 121.578125 220.082031 121.796875 220.261719 122.035156 220.421875 C 122.273438 220.578125 122.523438 220.714844 122.789062 220.824219 C 123.050781 220.933594 123.324219 221.015625 123.605469 221.070312 C 123.886719 221.128906 124.167969 221.15625 124.457031 221.15625 L 167.070312 221.15625 C 167.519531 221.15625 167.949219 221.242188 168.367188 221.414062 C 168.78125 221.585938 169.148438 221.832031 169.464844 222.148438 C 169.785156 222.46875 170.027344 222.835938 170.199219 223.25 C 170.371094 223.664062 170.457031 224.097656 170.457031 224.546875 C 170.457031 224.996094 170.371094 225.429688 170.199219 225.84375 C 170.027344 226.257812 169.785156 226.625 169.464844 226.945312 C 169.148438 227.261719 168.78125 227.507812 168.367188 227.679688 C 167.949219 227.851562 167.519531 227.9375 167.070312 227.9375 Z M 167.058594 227.9375 "/></g><g clip-rule="nonzero" clip-path="url(#2623b06a52)"><g clip-rule="nonzero" clip-path="url(#012ceb13e4)"><path style=" stroke:none;fill-rule:nonzero;fill:#1a2c80;fill-opacity:1;" d="M 163.683594 178.875 L 163.683594 152.960938 L 173.8125 152.960938 L 173.8125 178.875 Z M 163.683594 178.875 "/></g></g><g clip-rule="nonzero" clip-path="url(#a2c2fa3ce1)"><path style=" stroke:none;fill-rule:nonzero;fill:#ffd013;fill-opacity:1;" d="M 142.132812 167.171875 C 144.273438 166.21875 151.613281 168.328125 153.113281 170.867188 C 154.617188 173.410156 154.734375 175.148438 153.808594 177.691406 C 152.882812 180.238281 150.582031 182.082031 148.265625 182.429688 C 145.949219 182.773438 142.597656 183.46875 140.515625 180.925781 C 138.433594 178.386719 137.625 178.152344 137.507812 177.113281 C 137.394531 176.070312 136.816406 172.835938 138.316406 170.523438 C 139.820312 168.210938 140.050781 168.097656 142.132812 167.171875 Z M 142.132812 167.171875 "/></g><path style=" stroke:none;fill-rule:nonzero;fill:#000000;fill-opacity:1;" d="M 153.023438 172.644531 C 152.746094 171.484375 151.925781 170.476562 150.914062 169.867188 C 149.628906 169.097656 148.082031 168.902344 146.605469 168.96875 C 145.335938 169.027344 144.074219 169.253906 142.90625 169.757812 C 140.765625 170.683594 139.125 172.703125 139.300781 175.125 C 139.347656 175.738281 139.511719 176.34375 139.828125 176.867188 C 140.203125 177.480469 140.738281 177.921875 141.316406 178.332031 C 142.445312 179.128906 143.902344 180.394531 143.488281 181.898438 C 143.429688 181.886719 143.375 181.875 143.3125 181.867188 C 142.902344 181.792969 142.761719 182.507812 143.175781 182.597656 C 144.382812 182.851562 145.625 182.96875 146.855469 182.867188 C 147.0625 182.851562 147.324219 182.710938 147.300781 182.457031 C 147.1875 181.089844 147.675781 179.71875 148.703125 178.792969 C 149.246094 178.3125 149.878906 177.953125 150.476562 177.542969 C 151.027344 177.164062 151.53125 176.742188 151.960938 176.234375 C 152.824219 175.25 153.328125 173.945312 153.023438 172.644531 Z M 151.253906 175.765625 C 150.253906 176.886719 148.765625 177.402344 147.769531 178.523438 C 146.894531 179.507812 146.449219 180.757812 146.449219 182.050781 C 145.546875 182.105469 144.652344 182.074219 143.753906 181.945312 C 144.074219 181.050781 143.824219 180.042969 143.296875 179.246094 C 142.933594 178.699219 142.449219 178.28125 141.941406 177.875 C 141.445312 177.484375 140.914062 177.101562 140.589844 176.542969 C 139.472656 174.660156 140.503906 172.269531 142.179688 171.121094 C 143.15625 170.449219 144.320312 170.097656 145.476562 169.921875 C 146.8125 169.71875 148.257812 169.71875 149.550781 170.160156 C 150.660156 170.539062 151.667969 171.328125 152.085938 172.449219 C 152.527344 173.636719 152.066406 174.859375 151.253906 175.765625 Z M 151.253906 175.765625 "/><path style=" stroke:none;fill-rule:nonzero;fill:#000000;fill-opacity:1;" d="M 147.089844 176.503906 C 146.625 176.4375 146.382812 176.816406 146.222656 177.183594 C 146.214844 177.179688 146.214844 177.179688 146.210938 177.171875 C 146.621094 176.421875 146.863281 175.375 146.304688 174.691406 C 146.195312 174.554688 145.996094 174.566406 145.871094 174.664062 C 145.507812 174.949219 145.453125 175.433594 145.410156 175.871094 C 145.367188 176.273438 145.378906 176.695312 145.535156 177.070312 C 145.484375 177.148438 145.429688 177.21875 145.367188 177.289062 C 145.203125 176.632812 144.765625 175.953125 144.011719 176.289062 C 143.328125 176.601562 143.253906 177.609375 143.835938 178.050781 C 144.152344 178.289062 144.507812 178.347656 144.847656 178.28125 C 144.886719 179.199219 144.738281 180.082031 144.539062 180.976562 C 144.484375 181.195312 144.769531 181.285156 144.863281 181.082031 C 144.875 181.058594 144.878906 181.042969 144.890625 181.023438 C 144.953125 181.261719 145.351562 181.339844 145.4375 181.042969 C 145.617188 180.375 145.820312 179.710938 146.039062 179.050781 C 146.144531 178.742188 146.246094 178.4375 146.355469 178.128906 C 146.386719 178.042969 146.417969 177.949219 146.449219 177.855469 C 146.523438 177.863281 146.59375 177.871094 146.671875 177.863281 C 147.042969 177.839844 147.40625 177.609375 147.515625 177.246094 C 147.613281 176.929688 147.453125 176.554688 147.089844 176.503906 Z M 145.992188 175.574219 C 146.011719 175.777344 145.988281 175.988281 145.929688 176.195312 C 145.933594 176.132812 145.933594 176.070312 145.945312 176.007812 C 145.957031 175.886719 145.960938 175.722656 145.992188 175.574219 Z M 144.167969 177.179688 C 144.242188 176.898438 144.460938 176.882812 144.617188 177.121094 C 144.714844 177.273438 144.765625 177.449219 144.800781 177.628906 C 144.765625 177.636719 144.722656 177.640625 144.683594 177.640625 C 144.40625 177.65625 144.085938 177.5 144.167969 177.179688 Z M 145.351562 179.460938 C 145.429688 178.988281 145.460938 178.503906 145.457031 178.035156 C 145.632812 177.921875 145.792969 177.777344 145.925781 177.613281 C 145.949219 177.640625 145.980469 177.660156 146.007812 177.683594 C 145.773438 178.265625 145.554688 178.863281 145.351562 179.460938 Z M 147.019531 177.167969 C 146.96875 177.296875 146.773438 177.371094 146.632812 177.371094 C 146.664062 177.304688 146.695312 177.242188 146.726562 177.179688 C 146.761719 177.089844 146.820312 177.019531 146.902344 176.960938 C 147.0625 176.980469 147.105469 177.046875 147.019531 177.167969 Z M 147.019531 177.167969 "/><path style=" stroke:none;fill-rule:nonzero;fill:#000000;fill-opacity:1;" d="M 146.683594 183.542969 C 146.40625 183.429688 146.085938 183.441406 145.789062 183.425781 C 145.460938 183.410156 145.136719 183.402344 144.808594 183.417969 C 144.226562 183.445312 143.582031 183.457031 143.035156 183.664062 C 142.75 183.773438 142.910156 184.144531 143.144531 184.183594 C 143.714844 184.265625 144.320312 184.199219 144.902344 184.238281 C 145.183594 184.261719 145.46875 184.28125 145.75 184.316406 C 146.050781 184.355469 146.335938 184.425781 146.640625 184.386719 C 147.109375 184.324219 147.042969 183.695312 146.683594 183.542969 Z M 146.683594 183.542969 "/><path style=" stroke:none;fill-rule:nonzero;fill:#000000;fill-opacity:1;" d="M 145.894531 184.820312 C 145.515625 184.628906 144.972656 184.707031 144.5625 184.707031 C 144.074219 184.707031 143.597656 184.742188 143.113281 184.8125 C 142.816406 184.851562 142.910156 185.242188 143.15625 185.289062 C 143.503906 185.351562 143.847656 185.410156 144.195312 185.460938 C 144.082031 185.652344 144.023438 185.875 144.058594 186.078125 C 144.199219 186.839844 145.144531 187.140625 145.757812 186.734375 C 146.34375 186.332031 146.65625 185.203125 145.894531 184.820312 Z M 145.042969 185.914062 C 144.859375 185.886719 145.066406 185.738281 145.183594 185.707031 C 145.253906 185.683594 145.304688 185.648438 145.347656 185.601562 C 145.363281 185.601562 145.375 185.597656 145.367188 185.589844 C 145.453125 185.773438 145.171875 185.933594 145.042969 185.914062 Z M 145.042969 185.914062 "/><g clip-rule="nonzero" clip-path="url(#193597d7ad)"><path style=" stroke:none;fill-rule:nonzero;fill:#000000;fill-opacity:1;" d="M 143.179688 167.507812 C 143.253906 167.898438 143.832031 167.835938 143.855469 167.453125 C 143.914062 166.691406 143.773438 165.894531 143.714844 165.132812 C 143.660156 164.386719 143.628906 163.632812 143.523438 162.890625 C 143.484375 162.59375 143.011719 162.636719 143.003906 162.929688 C 142.984375 163.699219 143.039062 164.476562 143.066406 165.242188 C 143.09375 165.988281 143.046875 166.777344 143.179688 167.507812 Z M 143.179688 167.507812 "/></g><path style=" stroke:none;fill-rule:nonzero;fill:#000000;fill-opacity:1;" d="M 138.007812 170.371094 C 137.664062 170.179688 137.332031 169.976562 137.003906 169.757812 C 136.359375 169.332031 135.746094 168.855469 135.167969 168.339844 C 134.851562 168.054688 134.34375 168.484375 134.660156 168.792969 C 135.246094 169.359375 135.867188 169.882812 136.53125 170.351562 C 136.847656 170.578125 137.175781 170.792969 137.511719 170.996094 C 137.855469 171.203125 138.222656 171.480469 138.628906 171.511719 C 138.9375 171.535156 139.101562 171.144531 138.90625 170.929688 C 138.675781 170.667969 138.308594 170.542969 138.007812 170.371094 Z M 138.007812 170.371094 "/><g clip-rule="nonzero" clip-path="url(#a3642a1cd6)"><path style=" stroke:none;fill-rule:nonzero;fill:#000000;fill-opacity:1;" d="M 137.472656 175.46875 C 137.839844 175.367188 137.8125 174.816406 137.414062 174.792969 C 136.648438 174.746094 135.824219 174.980469 135.085938 175.171875 C 134.71875 175.273438 134.359375 175.375 134 175.5 C 133.636719 175.625 133.246094 175.734375 132.933594 175.960938 C 132.679688 176.148438 132.933594 176.484375 133.183594 176.453125 C 133.53125 176.410156 133.871094 176.253906 134.207031 176.148438 C 134.570312 176.039062 134.933594 175.941406 135.304688 175.859375 C 136.011719 175.699219 136.765625 175.667969 137.472656 175.46875 Z M 137.472656 175.46875 "/></g><path style=" stroke:none;fill-rule:nonzero;fill:#000000;fill-opacity:1;" d="M 150.472656 167.871094 C 151.125 166.71875 151.898438 165.683594 152.898438 164.808594 C 153.304688 164.449219 152.742188 163.820312 152.339844 164.179688 C 151.296875 165.125 150.433594 166.289062 149.914062 167.601562 C 149.789062 167.929688 150.292969 168.179688 150.472656 167.871094 Z M 150.472656 167.871094 "/><g clip-rule="nonzero" clip-path="url(#2cc8fa982e)"><path style=" stroke:none;fill-rule:nonzero;fill:#000000;fill-opacity:1;" d="M 158.472656 172.097656 C 157.710938 172.070312 156.929688 172.339844 156.222656 172.601562 C 155.492188 172.871094 154.820312 173.238281 154.195312 173.703125 C 153.921875 173.90625 154.234375 174.347656 154.527344 174.191406 C 155.152344 173.851562 155.808594 173.550781 156.484375 173.324219 C 157.160156 173.09375 157.859375 173.023438 158.535156 172.8125 C 158.910156 172.699219 158.902344 172.113281 158.472656 172.097656 Z M 158.472656 172.097656 "/></g><path style=" stroke:none;fill-rule:nonzero;fill:#000000;fill-opacity:1;" d="M 137.777344 179.484375 C 136.875 180.394531 136.058594 181.382812 135.347656 182.441406 C 135.039062 182.894531 135.773438 183.371094 136.050781 182.910156 C 136.675781 181.859375 137.386719 180.867188 138.191406 179.953125 C 138.453125 179.664062 138.070312 179.195312 137.777344 179.484375 Z M 137.777344 179.484375 "/><path style=" stroke:none;fill-rule:nonzero;fill:#000000;fill-opacity:1;" d="M 156.316406 182.078125 C 155.765625 181.648438 155.136719 181.300781 154.542969 180.925781 C 153.957031 180.550781 153.367188 180.125 152.738281 179.816406 C 152.480469 179.695312 152.109375 180.011719 152.371094 180.238281 C 152.902344 180.703125 153.515625 181.082031 154.09375 181.480469 C 154.683594 181.890625 155.273438 182.355469 155.902344 182.707031 C 156.328125 182.941406 156.699219 182.375 156.316406 182.078125 Z M 156.316406 182.078125 "/></g></svg>